<?xml version="1.0" encoding="utf-8"?>
<!-- Generator: Adobe Illustrator 24.0.2, SVG Export Plug-In . SVG Version: 6.00 Build 0)  -->
<svg version="1.1" id="Слой_1" xmlns="http://www.w3.org/2000/svg" xmlns:xlink="http://www.w3.org/1999/xlink" x="0px" y="0px"
	 viewBox="0 0 171 40.7" style="enable-background:new 0 0 171 40.7;" xml:space="preserve">
<path d="M170,0c-2.1,0-2.7,4.1-4,20.3c-0.5,6.4-1.1,14.9-2,17.7c-0.8-2.9-1.5-11.3-2-17.7C160.8,4.1,160.2,0,158,0
	c-2.1,0-2.7,4.1-4,20.3c-0.5,6.4-1.1,14.9-2,17.7c-0.8-2.9-1.5-11.3-2-17.7C148.8,4.1,148.2,0,146,0c-2.1,0-2.7,4.1-4,20.3
	c-0.5,6.4-1.1,14.9-2,17.7c-0.8-2.9-1.5-11.3-2-17.7C136.8,4.1,136.2,0,134,0s-2.7,4.1-4,20.3c-0.5,6.4-1.1,14.9-2,17.7
	c-0.8-2.9-1.5-11.3-2-17.7C124.8,4.1,124.2,0,122,0c-2.1,0-2.7,4.1-4,20.3c-0.5,6.4-1.1,14.9-2,17.7c-0.8-2.9-1.5-11.3-2-17.7
	C112.8,4.1,112.2,0,110,0c-2.1,0-2.7,4.1-4,20.3c-0.5,6.4-1.1,14.9-2,17.7c-0.8-2.9-1.5-11.3-2-17.7C100.8,4.1,100.2,0,98,0
	c-2.1,0-2.7,4.1-4,20.3c-0.5,6.4-1.1,14.9-2,17.7c-0.8-2.9-1.5-11.3-2-17.7C88.8,4.1,88.2,0,86,0c-0.2,0-0.4,0.1-0.5,0.1
	C85.3,0.1,85.2,0,85,0c-2.1,0-2.7,4.1-4,20.3c-0.5,6.4-1.1,14.9-2,17.7c-0.8-2.9-1.5-11.3-2-17.7C75.8,4.1,75.2,0,73,0
	c-2.1,0-2.7,4.1-4,20.3c-0.5,6.4-1.1,14.9-2,17.7c-0.8-2.9-1.5-11.3-2-17.7C63.8,4.1,63.2,0,61,0c-2.1,0-2.7,4.1-4,20.3
	c-0.5,6.4-1.1,14.9-2,17.7c-0.8-2.9-1.5-11.3-2-17.7C51.8,4.1,51.2,0,49,0s-2.7,4.1-4,20.3c-0.5,6.4-1.1,14.9-2,17.7
	c-0.8-2.9-1.5-11.3-2-17.7C39.8,4.1,39.2,0,37,0c-2.1,0-2.7,4.1-4,20.3c-0.5,6.4-1.1,14.9-2,17.7c-0.8-2.9-1.5-11.3-2-17.7
	C27.8,4.1,27.2,0,25,0c-2.1,0-2.7,4.1-4,20.3c-0.5,6.4-1.1,14.9-2,17.7c-0.8-2.9-1.5-11.3-2-17.7C15.8,4.1,15.2,0,13,0
	c-2.1,0-2.7,4.1-4,20.3C8.5,26.7,7.9,35.2,7,38c-0.8-2.9-1.5-11.3-2-17.7C3.8,4.1,3.2,0,1,0C0.4,0,0,0.4,0,1c0,0.4,0.3,0.8,0.7,0.9
	c1,1.5,1.8,11.3,2.3,18.5c1.2,16.2,1.8,20.3,4,20.3c2.1,0,2.7-4.1,4-20.3c0.5-6.4,1.1-14.9,2-17.7c0.8,2.9,1.5,11.3,2,17.7
	c1.2,16.2,1.8,20.3,4,20.3s2.7-4.1,4-20.3c0.5-6.4,1.1-14.9,2-17.7c0.8,2.9,1.5,11.3,2,17.7c1.2,16.2,1.8,20.3,4,20.3
	c2.1,0,2.7-4.1,4-20.3c0.5-6.4,1.1-14.9,2-17.7c0.8,2.9,1.5,11.3,2,17.7c1.2,16.2,1.8,20.3,4,20.3c2.1,0,2.7-4.1,4-20.3
	c0.5-6.4,1.1-14.9,2-17.7c0.8,2.9,1.5,11.3,2,17.7c1.2,16.2,1.8,20.3,4,20.3s2.7-4.1,4-20.3c0.5-6.4,1.1-14.9,2-17.7
	c0.8,2.9,1.5,11.3,2,17.7c1.2,16.2,1.8,20.3,4,20.3c2.1,0,2.7-4.1,4-20.3c0.5-6.4,1.1-14.9,2-17.7c0.8,2.9,1.5,11.3,2,17.7
	c1.2,16.2,1.8,20.3,4,20.3c2.2,0,2.7-4.1,4-20.3c0.6-7.2,1.3-17,2.3-18.5c0.1,0,0.1-0.1,0.2-0.1c0.1,0,0.1,0.1,0.2,0.1
	c1,1.5,1.8,11.3,2.3,18.5c1.2,16.2,1.8,20.3,4,20.3c2.1,0,2.7-4.1,4-20.3c0.5-6.4,1.1-14.9,2-17.7c0.8,2.9,1.5,11.3,2,17.7
	c1.2,16.2,1.8,20.3,4,20.3s2.7-4.1,4-20.3c0.5-6.4,1.1-14.9,2-17.7c0.8,2.9,1.5,11.3,2,17.7c1.2,16.2,1.8,20.3,4,20.3
	c2.1,0,2.7-4.1,4-20.3c0.5-6.4,1.1-14.9,2-17.7c0.8,2.9,1.5,11.3,2,17.7c1.2,16.2,1.8,20.3,4,20.3c2.1,0,2.7-4.1,4-20.3
	c0.5-6.4,1.1-14.9,2-17.7c0.8,2.9,1.5,11.3,2,17.7c1.2,16.2,1.8,20.3,4,20.3s2.7-4.1,4-20.3c0.5-6.4,1.1-14.9,2-17.7
	c0.8,2.9,1.5,11.3,2,17.7c1.2,16.2,1.8,20.3,4,20.3c2.1,0,2.7-4.1,4-20.3c0.5-6.4,1.1-14.9,2-17.7c0.8,2.9,1.5,11.3,2,17.7
	c1.2,16.2,1.8,20.3,4,20.3c2.2,0,2.7-4.1,4-20.3c0.6-7.2,1.3-17,2.3-18.5c0.4-0.1,0.7-0.5,0.7-0.9C171,0.4,170.5,0,170,0z"/>
</svg>
