<?xml version="1.0" encoding="utf-8"?>
<!-- Generator: Adobe Illustrator 24.0.2, SVG Export Plug-In . SVG Version: 6.00 Build 0)  -->
<svg version="1.1" id="Слой_1" xmlns="http://www.w3.org/2000/svg" xmlns:xlink="http://www.w3.org/1999/xlink" x="0px" y="0px"
	 viewBox="0 0 469.3 512" style="enable-background:new 0 0 469.3 512;" xml:space="preserve">
<path d="M325.3,512H58.7C26.3,512,0,485.7,0,453.3v-288c0-32.4,26.3-58.7,58.7-58.7h10.7c8.8,0,16,7.2,16,16s-7.2,16-16,16H58.7
	c-14.7,0-26.7,12-26.7,26.7v288C32,468,44,480,58.7,480h266.7c14.7,0,26.7-12,26.7-26.7v-10.7c0-8.8,7.2-16,16-16s16,7.2,16,16v10.7
	C384,485.7,357.7,512,325.3,512z"/>
<path d="M410.7,384h-224c-32.4,0-58.7-26.3-58.7-58.7V58.7C128,26.3,154.3,0,186.7,0h224c32.4,0,58.7,26.3,58.7,58.7v266.7
	C469.3,357.7,443,384,410.7,384z M186.7,32C172,32,160,44,160,58.7v266.7c0,14.7,12,26.7,26.7,26.7h224c14.7,0,26.7-12,26.7-26.7
	V58.7c0-14.7-12-26.7-26.7-26.7H186.7z"/>
</svg>
