<svg xmlns="http://www.w3.org/2000/svg" style="position:absolute; width: 0; height: 0"><symbol viewBox="0 0 469.3 512" id="icon-copy"><path d="M325.3 512H58.7C26.3 512 0 485.7 0 453.3v-288c0-32.4 26.3-58.7 58.7-58.7h10.7c8.8 0 16 7.2 16 16s-7.2 16-16 16H58.7c-14.7 0-26.7 12-26.7 26.7v288C32 468 44 480 58.7 480h266.7c14.7 0 26.7-12 26.7-26.7v-10.7c0-8.8 7.2-16 16-16s16 7.2 16 16v10.7c-.1 32.4-26.4 58.7-58.8 58.7z"></path><path d="M410.7 384h-224c-32.4 0-58.7-26.3-58.7-58.7V58.7C128 26.3 154.3 0 186.7 0h224c32.4 0 58.7 26.3 58.7 58.7v266.7c-.1 32.3-26.4 58.6-58.7 58.6zm-224-352C172 32 160 44 160 58.7v266.7c0 14.7 12 26.7 26.7 26.7h224c14.7 0 26.7-12 26.7-26.7V58.7c0-14.7-12-26.7-26.7-26.7h-224z"></path></symbol><symbol viewBox="0 0 18 18" id="icon-create"><path d="M0 14.2V18h3.8l11-11.1L11 3.1 0 14.2zM17.7 4c.4-.4.4-1 0-1.4L15.4.3c-.4-.4-1-.4-1.4 0l-1.8 1.8L16 5.9 17.7 4z" fill="#fff" fill-rule="evenodd"></path></symbol><symbol viewBox="0 0 29 29" id="icon-cross"><path d="M14.5 0C6.491 0 0 6.491 0 14.5S6.491 29 14.5 29 29 22.509 29 14.5 22.509 0 14.5 0zm7.17 19.11l-2.57 2.572-4.611-4.61-4.61 4.61-2.561-2.572 4.61-4.61L7.33 9.89l2.56-2.56 4.611 4.61 4.61-4.61 2.572 2.56-4.61 4.61 4.599 4.61z"></path></symbol><symbol viewBox="0 0 329.26933 329" id="icon-cross2"><path d="M194.8 164.77L323.013 36.555c8.343-8.34 8.343-21.825 0-30.164-8.34-8.34-21.825-8.34-30.164 0L164.633 134.605 36.422 6.391c-8.344-8.34-21.824-8.34-30.164 0-8.344 8.34-8.344 21.824 0 30.164l128.21 128.215L6.259 292.984c-8.344 8.34-8.344 21.825 0 30.164a21.266 21.266 0 0 0 15.082 6.25c5.46 0 10.922-2.09 15.082-6.25l128.21-128.214 128.216 128.214a21.273 21.273 0 0 0 15.082 6.25c5.46 0 10.922-2.09 15.082-6.25 8.343-8.34 8.343-21.824 0-30.164zm0 0"></path></symbol><symbol viewBox="0 0 384 512" id="icon-delete"><path d="M330.7 42.7h-57.4l-6.6-13.2C257.6 11.3 239.3 0 218.9 0H165c-20.3 0-38.6 11.3-47.7 29.5l-6.6 13.2H53.3C23.9 42.7 0 66.6 0 96v21.3c0 5.9 4.8 10.7 10.7 10.7h362.7c5.9 0 10.7-4.8 10.7-10.7V96c-.1-29.4-24-53.3-53.4-53.3zm32 64H21.3V96c0-17.6 14.4-32 32-32h64c4 0 7.7-2.3 9.5-5.9l9.6-19.1c5.4-10.9 16.4-17.7 28.6-17.7h54c12.2 0 23.2 6.8 28.6 17.7l9.5 19.1c1.8 3.6 5.5 5.9 9.5 5.9h64c17.6 0 32 14.4 32 32l.1 10.7z"></path><path d="M352 106.7H32c-5.9 0-10.7 4.8-10.7 10.7v320c0 41.2 33.5 74.7 74.7 74.7h192c41.2 0 74.7-33.5 74.7-74.7v-320c0-6-4.8-10.7-10.7-10.7zm-10.7 330.6c0 29.4-23.9 53.3-53.3 53.3H96c-29.4 0-53.3-23.9-53.3-53.3V128h298.7l-.1 309.3z"></path><path d="M96 170.7c-5.9 0-10.7 4.8-10.7 10.7v256c0 5.9 4.8 10.7 10.7 10.7s10.7-4.8 10.7-10.7v-256c0-6-4.8-10.7-10.7-10.7zM160 170.7c-5.9 0-10.7 4.8-10.7 10.7v256c0 5.9 4.8 10.7 10.7 10.7s10.7-4.8 10.7-10.7v-256c0-6-4.8-10.7-10.7-10.7zM224 170.7c-5.9 0-10.7 4.8-10.7 10.7v256c0 5.9 4.8 10.7 10.7 10.7s10.7-4.8 10.7-10.7v-256c0-6-4.8-10.7-10.7-10.7zM288 170.7c-5.9 0-10.7 4.8-10.7 10.7v256c0 5.9 4.8 10.7 10.7 10.7s10.7-4.8 10.7-10.7v-256c0-6-4.8-10.7-10.7-10.7z"></path></symbol><symbol viewBox="0 0 512 512" id="icon-edit"><path d="M368 511.957H58.668C26.305 511.957 0 485.652 0 453.289V143.957c0-32.363 26.305-58.668 58.668-58.668H240c8.832 0 16 7.168 16 16s-7.168 16-16 16H58.668c-14.7 0-26.668 11.969-26.668 26.668v309.332c0 14.7 11.969 26.668 26.668 26.668H368c14.7 0 26.668-11.969 26.668-26.668V271.957c0-8.832 7.168-16 16-16s16 7.148 16 16v181.332c0 32.363-26.305 58.668-58.668 58.668zm0 0"></path><path d="M187.137 340.82c-4.203 0-8.301-1.664-11.309-4.691-3.797-3.777-5.418-9.219-4.371-14.445l15.082-75.434a15.953 15.953 0 0 1 4.371-8.172L411.863 17.152c22.867-22.87 60.075-22.87 82.965 0C505.898 28.222 512 42.945 512 58.625s-6.102 30.398-17.195 41.473L273.879 321.047a15.886 15.886 0 0 1-8.172 4.371L190.293 340.5c-1.047.215-2.113.32-3.156.32zm75.433-31.082h.215zm-45.61-52.457l-9.41 47.145 47.126-9.43L472.19 77.484C477.227 72.426 480 65.75 480 58.625s-2.773-13.805-7.809-18.86c-10.367-10.39-27.285-10.39-37.714 0zm0 0"></path><path d="M453.332 134.977c-4.094 0-8.191-1.559-11.305-4.696L381.695 69.93c-6.25-6.25-6.25-16.383 0-22.633s16.383-6.25 22.637 0l60.328 60.351c6.25 6.25 6.25 16.383 0 22.633a16.038 16.038 0 0 1-11.328 4.696zm0 0"></path></symbol><symbol id="icon-file"><path d="M5 2c-1.105 0-2 .9-2 2v18c0 1.1.895 2 2 2h14c1.105 0 2-.9 2-2V8l-6-6H5z" fill="#95a5a6"></path><path d="M5 1c-1.105 0-2 .9-2 2v18c0 1.1.895 2 2 2h14c1.105 0 2-.9 2-2V7l-6-6H5z" fill="#bdc3c7"></path><path d="M21 7l-6-6v4c0 1.1.895 2 2 2h4z" fill="#95a5a6"></path></symbol><symbol viewBox="0 0 13 6" id="icon-select-after"><path d="M13 .25a.24.24 0 0 0-.075-.173.287.287 0 0 0-.383-.008L6.5 5.404.458.069a.288.288 0 0 0-.383.008.237.237 0 0 0 .008.354l6.23 5.5c.104.092.27.092.374 0l6.23-5.5A.24.24 0 0 0 13 .25z" fill="#000"></path></symbol><symbol viewBox="0 0 32 32" id="icon-user"><path fill="none" d="M0 0h32v32H0z"></path><path d="M0 32h32v-8s0-4-4-4H4c-4 0-4 4-4 4v8z"></path><circle cx="16" cy="10" r="8"></circle></symbol></svg>