<svg xmlns="http://www.w3.org/2000/svg" style="position:absolute; width: 0; height: 0"><symbol viewBox="0 0 18 18" id="icon-create"><path d="M0 14.2V18h3.8l11-11.1L11 3.1 0 14.2zM17.7 4c.4-.4.4-1 0-1.4L15.4.3c-.4-.4-1-.4-1.4 0l-1.8 1.8L16 5.9 17.7 4z" fill="#fff" fill-rule="evenodd"></path></symbol><symbol viewBox="0 0 29 29" id="icon-cross"><path d="M14.5 0C6.491 0 0 6.491 0 14.5S6.491 29 14.5 29 29 22.509 29 14.5 22.509 0 14.5 0zm7.17 19.11l-2.57 2.572-4.611-4.61-4.61 4.61-2.561-2.572 4.61-4.61L7.33 9.89l2.56-2.56 4.611 4.61 4.61-4.61 2.572 2.56-4.61 4.61 4.599 4.61z"></path></symbol><symbol viewBox="0 0 329.26933 329" id="icon-cross2"><path d="M194.8 164.77L323.013 36.555c8.343-8.34 8.343-21.825 0-30.164-8.34-8.34-21.825-8.34-30.164 0L164.633 134.605 36.422 6.391c-8.344-8.34-21.824-8.34-30.164 0-8.344 8.34-8.344 21.824 0 30.164l128.21 128.215L6.259 292.984c-8.344 8.34-8.344 21.825 0 30.164a21.266 21.266 0 0 0 15.082 6.25c5.46 0 10.922-2.09 15.082-6.25l128.21-128.214 128.216 128.214a21.273 21.273 0 0 0 15.082 6.25c5.46 0 10.922-2.09 15.082-6.25 8.343-8.34 8.343-21.824 0-30.164zm0 0"></path></symbol><symbol id="icon-file"><path d="M5 2c-1.105 0-2 .9-2 2v18c0 1.1.895 2 2 2h14c1.105 0 2-.9 2-2V8l-6-6H5z" fill="#95a5a6"></path><path d="M5 1c-1.105 0-2 .9-2 2v18c0 1.1.895 2 2 2h14c1.105 0 2-.9 2-2V7l-6-6H5z" fill="#bdc3c7"></path><path d="M21 7l-6-6v4c0 1.1.895 2 2 2h4z" fill="#95a5a6"></path></symbol><symbol viewBox="0 0 13 6" id="icon-select-after"><path d="M13 .25a.24.24 0 0 0-.075-.173.287.287 0 0 0-.383-.008L6.5 5.404.458.069a.288.288 0 0 0-.383.008.237.237 0 0 0 .008.354l6.23 5.5c.104.092.27.092.374 0l6.23-5.5A.24.24 0 0 0 13 .25z" fill="#000"></path></symbol><symbol viewBox="0 0 32 32" id="icon-user"><path fill="none" d="M0 0h32v32H0z"></path><path d="M0 32h32v-8s0-4-4-4H4c-4 0-4 4-4 4v8z"></path><circle cx="16" cy="10" r="8"></circle></symbol></svg>