<?xml version="1.0" encoding="utf-8"?>
<!-- Generator: Adobe Illustrator 24.0.2, SVG Export Plug-In . SVG Version: 6.00 Build 0)  -->
<svg version="1.1" id="Layer_1" xmlns="http://www.w3.org/2000/svg" xmlns:xlink="http://www.w3.org/1999/xlink" x="0px" y="0px"
	 viewBox="0 0 384 512" style="enable-background:new 0 0 384 512;" xml:space="preserve">
<g>
	<g>
		<path d="M330.7,42.7h-57.4l-6.6-13.2C257.6,11.3,239.3,0,218.9,0H165c-20.3,0-38.6,11.3-47.7,29.5l-6.6,13.2H53.3
			C23.9,42.7,0,66.6,0,96v21.3c0,5.9,4.8,10.7,10.7,10.7h362.7c5.9,0,10.7-4.8,10.7-10.7V96C384,66.6,360.1,42.7,330.7,42.7z
			 M362.7,106.7H21.3V96c0-17.6,14.4-32,32-32h64c4,0,7.7-2.3,9.5-5.9l9.6-19.1c5.4-10.9,16.4-17.7,28.6-17.7H219
			c12.2,0,23.2,6.8,28.6,17.7l9.5,19.1c1.8,3.6,5.5,5.9,9.5,5.9h64c17.6,0,32,14.4,32,32L362.7,106.7L362.7,106.7z"/>
	</g>
</g>
<g>
	<g>
		<path d="M352,106.7H32c-5.9,0-10.7,4.8-10.7,10.7v320c0,41.2,33.5,74.7,74.7,74.7h192c41.2,0,74.7-33.5,74.7-74.7v-320
			C362.7,111.4,357.9,106.7,352,106.7z M341.3,437.3c0,29.4-23.9,53.3-53.3,53.3H96c-29.4,0-53.3-23.9-53.3-53.3V128h298.7
			L341.3,437.3L341.3,437.3z"/>
	</g>
</g>
<g>
	<g>
		<path d="M96,170.7c-5.9,0-10.7,4.8-10.7,10.7v256c0,5.9,4.8,10.7,10.7,10.7s10.7-4.8,10.7-10.7v-256
			C106.7,175.4,101.9,170.7,96,170.7z"/>
	</g>
</g>
<g>
	<g>
		<path d="M160,170.7c-5.9,0-10.7,4.8-10.7,10.7v256c0,5.9,4.8,10.7,10.7,10.7s10.7-4.8,10.7-10.7v-256
			C170.7,175.4,165.9,170.7,160,170.7z"/>
	</g>
</g>
<g>
	<g>
		<path d="M224,170.7c-5.9,0-10.7,4.8-10.7,10.7v256c0,5.9,4.8,10.7,10.7,10.7s10.7-4.8,10.7-10.7v-256
			C234.7,175.4,229.9,170.7,224,170.7z"/>
	</g>
</g>
<g>
	<g>
		<path d="M288,170.7c-5.9,0-10.7,4.8-10.7,10.7v256c0,5.9,4.8,10.7,10.7,10.7s10.7-4.8,10.7-10.7v-256
			C298.7,175.4,293.9,170.7,288,170.7z"/>
	</g>
</g>
</svg>
